<?xml version="1.0" standalone="no"?>
<!DOCTYPE svg PUBLIC "-//W3C//DTD SVG 1.1//EN"
  "http://www.w3.org/Graphics/SVG/1.1/DTD/svg11.dtd">
<svg width="500" height="500" version="1.1"
  xmlns="http://www.w3.org/2000/svg">
<line x1="250" y1="250" x2="250.0" y2="350.0" style="stroke:black;"/><text x="250.0" y="350.0" style="fill:black;"><tspan x="250.0" dy="0em">a</tspan></text><line x1="250" y1="250" x2="273.9315664287558" y2="347.0941817426052" style="stroke:black;"/><text x="273.9315664287558" y="347.0941817426052" style="fill:black;"><tspan x="273.9315664287558" dy="0em">b</tspan></text><line x1="250" y1="250" x2="296.47231720437685" y2="338.545602565321" style="stroke:black;"/><text x="296.47231720437685" y="338.545602565321" style="fill:black;"><tspan x="296.47231720437685" dy="0em">c</tspan></text><line x1="250" y1="250" x2="316.31226582407953" y2="324.8510748171101" style="stroke:black;"/><text x="316.31226582407953" y="324.8510748171101" style="fill:black;"><tspan x="316.31226582407953" dy="0em">d</tspan></text><line x1="250" y1="250" x2="332.29838658936563" y2="306.8064746731156" style="stroke:black;"/><text x="332.29838658936563" y="306.8064746731156" style="fill:black;"><tspan x="332.29838658936563" dy="0em">e</tspan></text><line x1="250" y1="250" x2="343.5016242685415" y2="285.4604887042536" style="stroke:black;"/><text x="343.5016242685415" y="285.4604887042536" style="fill:black;"><tspan x="343.5016242685415" dy="0em">f</tspan></text><line x1="250" y1="250" x2="349.27088740980537" y2="262.0536680255323" style="stroke:black;"/><text x="349.27088740980537" y="262.0536680255323" style="fill:black;"><tspan x="349.27088740980537" dy="0em">g</tspan></text><line x1="250" y1="250" x2="349.27088740980537" y2="237.9463319744677" style="stroke:black;"/><text x="349.27088740980537" y="237.9463319744677" style="fill:black;"><tspan x="349.27088740980537" dy="0em">h</tspan></text><line x1="250" y1="250" x2="343.5016242685415" y2="214.53951129574645" style="stroke:black;"/><text x="343.5016242685415" y="214.53951129574645" style="fill:black;"><tspan x="343.5016242685415" dy="0em">i</tspan></text><line x1="250" y1="250" x2="332.29838658936563" y2="193.1935253268844" style="stroke:black;"/><text x="332.29838658936563" y="193.1935253268844" style="fill:black;"><tspan x="332.29838658936563" dy="0em">j</tspan></text><line x1="250" y1="250" x2="316.31226582407953" y2="175.1489251828899" style="stroke:black;"/><text x="316.31226582407953" y="175.1489251828899" style="fill:black;"><tspan x="316.31226582407953" dy="0em">k</tspan></text><line x1="250" y1="250" x2="296.47231720437685" y2="161.45439743467904" style="stroke:black;"/><text x="296.47231720437685" y="161.45439743467904" style="fill:black;"><tspan x="296.47231720437685" dy="0em">l</tspan></text><line x1="250" y1="250" x2="273.9315664287558" y2="152.9058182573948" style="stroke:black;"/><text x="273.9315664287558" y="152.9058182573948" style="fill:black;"><tspan x="273.9315664287558" dy="0em">m</tspan></text><line x1="250" y1="250" x2="250.0" y2="150.0" style="stroke:black;"/><text x="250.0" y="150.0" style="fill:black;"><tspan x="250.0" dy="0em">n</tspan></text><line x1="250" y1="250" x2="226.06843357124427" y2="152.9058182573948" style="stroke:black;"/><text x="226.06843357124427" y="152.9058182573948" style="fill:black;"><tspan x="226.06843357124427" dy="0em">o</tspan></text><line x1="250" y1="250" x2="203.52768279562315" y2="161.454397434679" style="stroke:black;"/><text x="203.52768279562315" y="161.454397434679" style="fill:black;"><tspan x="203.52768279562315" dy="0em">p</tspan></text><line x1="250" y1="250" x2="183.6877341759205" y2="175.14892518288985" style="stroke:black;"/><text x="183.6877341759205" y="175.14892518288985" style="fill:black;"><tspan x="183.6877341759205" dy="0em">q</tspan></text><line x1="250" y1="250" x2="167.70161341063437" y2="193.1935253268844" style="stroke:black;"/><text x="167.70161341063437" y="193.1935253268844" style="fill:black;"><tspan x="167.70161341063437" dy="0em">r</tspan></text><line x1="250" y1="250" x2="156.4983757314585" y2="214.53951129574642" style="stroke:black;"/><text x="156.4983757314585" y="214.53951129574642" style="fill:black;"><tspan x="156.4983757314585" dy="0em">s</tspan></text><line x1="250" y1="250" x2="150.7291125901946" y2="237.94633197446765" style="stroke:black;"/><text x="150.7291125901946" y="237.94633197446765" style="fill:black;"><tspan x="150.7291125901946" dy="0em">t</tspan></text><line x1="250" y1="250" x2="150.72911259019457" y2="262.05366802553226" style="stroke:black;"/><text x="150.72911259019457" y="262.05366802553226" style="fill:black;"><tspan x="150.72911259019457" dy="0em">u</tspan></text><line x1="250" y1="250" x2="156.4983757314585" y2="285.4604887042536" style="stroke:black;"/><text x="156.4983757314585" y="285.4604887042536" style="fill:black;"><tspan x="156.4983757314585" dy="0em">v</tspan></text><line x1="250" y1="250" x2="167.70161341063434" y2="306.80647467311553" style="stroke:black;"/><text x="167.70161341063434" y="306.80647467311553" style="fill:black;"><tspan x="167.70161341063434" dy="0em">w</tspan></text><line x1="250" y1="250" x2="183.68773417592047" y2="324.8510748171101" style="stroke:black;"/><text x="183.68773417592047" y="324.8510748171101" style="fill:black;"><tspan x="183.68773417592047" dy="0em">x</tspan></text><line x1="250" y1="250" x2="203.5276827956231" y2="338.54560256532096" style="stroke:black;"/><text x="203.5276827956231" y="338.54560256532096" style="fill:black;"><tspan x="203.5276827956231" dy="0em">y</tspan></text><line x1="250" y1="250" x2="226.06843357124413" y2="347.0941817426052" style="stroke:black;"/><text x="226.06843357124413" y="347.0941817426052" style="fill:black;"><tspan x="226.06843357124413" dy="0em">z</tspan></text></svg>